<svg width="158" height="154" viewBox="0 0 158 154" fill="none" xmlns="http://www.w3.org/2000/svg">
<path d="M69.6484 60.7559H137.592V64.7969H69.6484V60.7559Z" fill="#1E435A"/>
<path d="M24.768 71.559C26.843 72.879 28.944 73.364 32.527 73.364C36.433 73.364 39.074 72.636 41.364 70.912C43.546 69.296 44.354 67.868 44.677 65.255L38.562 63.773C37.619 67.518 35.841 69.161 32.742 69.161C28.971 69.161 26.681 66.656 26.654 62.561C26.654 58.52 28.782 56.041 32.311 56.041C35.248 56.041 36.595 57.038 38.346 60.675L44.3 58.762C43.6 56.876 42.9 55.879 41.39 54.721C39.074 52.943 35.948 52 32.338 52C28.891 52 26.546 52.62 24.337 54.073C21.562 55.934 20 59.031 20 62.668C20.027 66.575 21.616 69.538 24.768 71.558V71.559Z" fill="#1E435A"/>
<path d="M56.3154 73.282C62.6994 73.255 67.0104 69.995 66.9834 65.2C66.9564 60.404 62.8884 57.064 57.0964 57.09C50.1994 57.118 46.0234 60.243 46.0234 65.361C46.0504 70.319 49.9304 73.309 56.3154 73.282ZM56.4224 60.566C59.3594 60.566 61.0294 62.236 61.0294 65.254C61.0294 68.19 59.3324 69.941 56.4494 69.941C53.7014 69.941 52.0044 68.298 52.0044 65.631C51.9774 62.425 53.5944 60.566 56.4224 60.566Z" fill="#1E435A"/>
<path d="M22.6406 76.3066L28.4046 76.2932L28.4526 96.7961L22.6886 96.8096L22.6406 76.3066Z" fill="#1E435A"/>
<path d="M54.8077 81.177C51.9787 81.177 50.2817 81.85 48.3687 83.736L48.0727 83.466C46.2947 81.796 44.8667 81.204 42.4147 81.231C39.9907 81.231 38.2117 81.904 36.3537 83.467L36.2997 83.44C36.4067 82.982 36.4337 82.793 36.4337 82.362V81.419H31.2617L31.2887 96.802H36.4607L36.4337 88.585C36.4337 86.78 38.2657 85.245 40.4487 85.245C42.7647 85.245 43.7617 86.484 43.7617 89.313L43.7887 96.775H48.9887L48.9617 88.558C48.9617 86.753 50.7937 85.218 52.9757 85.218C55.2927 85.218 56.2897 86.457 56.2897 89.286L56.3167 96.748H61.5167L61.4887 86.726C61.5157 83.17 59.0647 81.15 54.8077 81.176V81.177Z" fill="#1E435A"/>
<path d="M75.3636 80.9085C72.8576 80.9085 71.1876 81.5015 69.2206 82.9835L69.1666 82.9565C69.268 82.6711 69.3138 82.369 69.3016 82.0665V81.3125H64.1016L64.1556 101.06H69.3556V97.7465C69.3556 96.4805 69.3286 96.1845 69.2206 94.9985L69.2746 94.9715C71.4566 96.5615 72.9646 97.1005 75.2016 97.1005C80.4016 97.1005 83.6616 93.9485 83.6336 88.8565C83.6066 84.0335 80.3736 80.8815 75.3636 80.9085ZM73.8006 93.0055C71.0256 93.0055 69.0586 91.3355 69.0586 88.9375C69.0586 86.6745 70.9716 85.0845 73.7196 85.0575C76.3326 85.0575 78.1116 86.5935 78.1116 88.8835C78.0846 91.3345 76.3866 93.0055 73.8006 93.0055ZM103.597 90.2845V85.4885C103.597 82.5525 100.553 80.8005 95.4066 80.8285C92.0936 80.8285 88.9686 81.4745 86.4366 82.6595L88.7796 85.5695C90.4766 84.8425 92.8746 84.3575 94.6256 84.3295C97.0236 84.3295 98.3706 84.8955 98.3706 85.9195C98.3706 86.6195 97.5896 86.8625 94.8146 86.9975C91.3926 87.1855 90.4226 87.3475 88.7796 87.8865C86.4096 88.6945 85.0896 90.2565 85.0896 92.2775C85.0896 94.9175 87.7826 96.8305 91.4736 96.8035C94.0336 96.8035 96.5656 95.9685 98.6396 94.4335C98.8826 96.1575 99.5016 96.5885 101.873 96.5885H105.241L105.591 92.7355C103.894 92.7625 103.597 92.3585 103.597 90.2845ZM98.3706 90.1495V91.2275C96.4036 92.8435 94.8406 93.4635 92.7666 93.4635C91.4466 93.4635 90.7196 93.0055 90.7196 92.1695C90.7196 91.1195 91.5546 90.5535 93.4676 90.2035C95.8646 89.7995 96.7006 89.5835 98.4246 88.9105C98.3706 89.4485 98.3706 89.5835 98.3706 90.1495Z" fill="#1E435A"/>
<path d="M116.394 93.5432C113.754 93.5432 111.976 91.7103 111.976 88.9093C111.976 86.1073 113.727 84.2752 116.367 84.2752C118.496 84.2752 119.735 85.2722 120.597 87.5082L126.12 86.6733C124.423 82.6313 121.405 80.7732 116.475 80.7992C110.144 80.8262 106.184 83.9523 106.184 88.9363C106.184 93.9202 110.171 97.0182 116.502 97.0182C121.405 97.0182 124.449 95.1582 126.12 91.0912L120.597 90.2833C119.762 92.5463 118.496 93.5432 116.394 93.5432ZM137.623 92.7073C136.95 92.7882 136.573 92.8152 136.169 92.8152C134.849 92.8152 134.256 92.3302 134.256 91.1723V85.9182C134.256 85.5952 134.229 85.5142 134.148 85.1912C134.444 85.2712 134.525 85.2992 134.875 85.2992H137.623V81.1772H134.875C134.552 81.1772 134.471 81.1773 134.148 81.2843C134.228 80.9883 134.256 80.9072 134.256 80.5572V76.0312L129.083 79.5332V80.5572C129.083 80.8802 129.11 80.9613 129.191 81.2843C128.895 81.1773 128.814 81.1772 128.464 81.1772H126.901V85.2992H128.464C128.787 85.2992 128.868 85.2722 129.191 85.1912C129.111 85.4872 129.083 85.5682 129.083 85.9182L129.11 93.0842C129.11 95.6442 130.619 96.8832 133.663 96.8832C135.199 96.8832 136.033 96.7213 137.65 96.1023L137.623 92.7073Z" fill="#1E435A"/>
</svg>
