<svg width="158" height="154" viewBox="0 0 158 154" fill="none" xmlns="http://www.w3.org/2000/svg">
<mask id="mask0_103_7410" style="mask-type:luminance" maskUnits="userSpaceOnUse" x="10" y="63" width="137" height="29">
<path d="M147 63H10V92H147V63Z" fill="white"/>
</mask>
<g mask="url(#mask0_103_7410)">
<path d="M18.9748 67.3665L15.4681 70.8359C15.2607 71.0411 14.9244 71.0411 14.717 70.8359L11.2103 67.3665C11.0028 67.1612 11.0028 66.8285 11.2103 66.6233L14.7169 63.1539C14.9244 62.9487 15.2606 62.9487 15.4681 63.1539L18.9747 66.6233C19.1822 66.8285 19.1822 67.1612 18.9748 67.3665Z" fill="#00BD4D"/>
<path d="M135.752 81.7157L141.982 90.8628C142.206 91.1788 141.962 91.5993 141.554 91.5993H136.319C135.969 91.5993 135.642 91.4285 135.443 91.1427L131.842 85.6907L128.241 91.1427C128.043 91.4285 127.715 91.5993 127.365 91.5993H122.13C121.722 91.5993 121.478 91.1788 121.702 90.8628L127.913 81.7157L121.702 72.5685C121.478 72.2526 121.722 71.832 122.13 71.832H127.588C127.793 71.832 127.983 71.9252 128.089 72.0778L131.842 77.7326L135.364 72.08C135.469 71.9262 135.66 71.8321 135.866 71.8321H141.377C141.785 71.8321 142.029 72.2514 141.806 72.5674L135.752 81.7157Z" fill="#101820"/>
<path d="M50.7485 63.8477H46.4069C45.9843 63.8477 45.579 64.0137 45.2802 64.3094L41.2009 68.3453C40.9021 68.6409 40.7342 69.0419 40.7342 69.46V72.6364H38.2993C38.011 72.6364 37.7773 72.8676 37.7773 73.1528V76.7181C37.7773 77.0033 38.011 77.2345 38.2993 77.2345H40.7342V91.075C40.7342 91.3652 40.9721 91.6005 41.2654 91.6005H45.8465C46.1398 91.6005 46.3777 91.3653 46.3777 91.075V77.2345H50.016C50.3043 77.2345 50.538 77.0033 50.538 76.7181V73.1528C50.538 72.8676 50.3043 72.6364 50.016 72.6364H46.3777V70.3836C46.3777 69.5129 47.0911 68.8071 47.9711 68.8071H50.7485C51.0419 68.8071 51.2797 68.5718 51.2797 68.2816V64.3731C51.2797 64.0829 51.0419 63.8477 50.7485 63.8477Z" fill="#101820"/>
<path d="M146.998 89.7288C146.998 90.9395 146.019 91.9079 144.791 91.9079C143.59 91.9079 142.602 90.9307 142.602 89.7288C142.602 88.5226 143.581 87.5586 144.8 87.5586C146.019 87.5586 146.998 88.5227 146.998 89.7288ZM146.66 89.7377C146.66 88.6944 145.828 87.8666 144.8 87.8666C143.772 87.8666 142.94 88.6856 142.94 89.7334C142.94 90.7678 143.781 91.5999 144.791 91.5999C145.828 91.5999 146.66 90.7766 146.66 89.7377ZM145.272 90.081L145.823 90.9307H145.459L144.844 89.9667H144.764H144.284V90.9307H143.977V88.4919H144.933C145.405 88.4919 145.712 88.7429 145.712 89.2095C145.712 89.5881 145.481 89.8214 145.151 89.9137C145.196 89.9622 145.24 90.0237 145.272 90.081ZM144.831 89.6804C145.178 89.6804 145.392 89.5175 145.392 89.2314C145.392 88.954 145.245 88.7779 144.942 88.7779H144.284V89.6804H144.831Z" fill="#101820"/>
<path d="M100.456 91.6005H95.8748C95.5815 91.6005 95.3438 91.3653 95.3438 91.075V64.3731C95.3438 64.0829 95.5815 63.8477 95.8748 63.8477H100.456C100.749 63.8477 100.987 64.0829 100.987 64.3731V91.075C100.987 91.3653 100.749 91.6005 100.456 91.6005Z" fill="#101820"/>
<path d="M84.4285 71.4167C81.8232 71.4167 79.6583 72.5326 78.2957 74.3654V64.3731C78.2957 64.0829 78.0579 63.8477 77.7645 63.8477H73.1834C72.8901 63.8477 72.6523 64.0829 72.6523 64.3731V91.075C72.6523 91.3652 72.89 91.6005 73.1834 91.6005H77.7645C78.0579 91.6005 78.2957 91.3653 78.2957 91.075V89.1073C79.6583 90.9401 81.8232 92.0002 84.4688 92.0002C90.0407 92.0002 93.8331 87.5536 93.8331 81.7364C93.8331 75.9191 90.0408 71.4167 84.4285 71.4167ZM83.3062 86.7567C80.4202 86.7567 78.2957 84.4456 78.2957 81.7363C78.2957 79.0271 80.4202 76.7556 83.3062 76.7556C86.1524 76.7556 88.2367 79.0271 88.2367 81.7363C88.2367 84.4456 86.1524 86.7567 83.3062 86.7567Z" fill="#101820"/>
<path d="M60.8538 71.418C55.0393 71.418 50.5391 75.8996 50.5391 81.69C50.5391 87.4804 55.0393 92.0014 60.8538 92.0014C66.6683 92.0014 71.1686 87.4804 71.1686 81.69C71.1686 75.8996 66.6683 71.418 60.8538 71.418ZM60.8742 86.7028C58.0344 86.7028 55.8946 84.4138 55.8946 81.6901C55.8946 78.9664 58.0344 76.7166 60.8742 76.7166C63.7549 76.7166 65.813 78.9664 65.813 81.6901C65.813 84.4138 63.7549 86.7028 60.8742 86.7028Z" fill="#101820"/>
<path d="M112.784 71.418C106.969 71.418 102.469 75.8996 102.469 81.69C102.469 87.4804 106.969 92.0014 112.784 92.0014C118.598 92.0014 123.098 87.4804 123.098 81.69C123.098 75.8996 118.598 71.418 112.784 71.418ZM112.804 86.7028C109.964 86.7028 107.824 84.4138 107.824 81.6901C107.824 78.9664 109.964 76.7166 112.804 76.7166C115.685 76.7166 117.743 78.9664 117.743 81.6901C117.743 84.4138 115.685 86.7028 112.804 86.7028Z" fill="#101820"/>
<path d="M15.1123 91.5998H10.5311C10.2378 91.5998 10 91.3645 10 91.0743V76.9995C10 76.7167 10.1152 76.4458 10.3196 76.248L14.7409 71.9711C15.0772 71.6458 15.6434 71.8815 15.6434 72.3469V91.0743C15.6434 91.3645 15.4056 91.5998 15.1123 91.5998Z" fill="#101820"/>
<path d="M37.0229 78.5103C37.0229 74.6747 33.8203 71.4592 29.7863 71.4126C27.1609 71.3823 25.3879 72.6557 24.2529 74.3743V72.359C24.2529 72.0688 24.0151 71.8335 23.7218 71.8335H19.1405C18.8472 71.8335 18.6094 72.0688 18.6094 72.359V91.0753C18.6094 91.3655 18.8472 91.6008 19.1405 91.6008H23.7218C24.0151 91.6008 24.2529 91.3655 24.2529 91.0753V80.1899C24.3795 78.0957 25.7209 76.7918 27.8158 76.7918C29.9956 76.7918 31.3795 78.2551 31.3795 80.4303V91.0753C31.3795 91.3655 31.6174 91.6008 31.9107 91.6008H36.4918C36.7852 91.6008 37.023 91.3655 37.023 91.0753L37.0229 78.5103Z" fill="#101820"/>
</g>
</svg>
