<svg width="158" height="154" viewBox="0 0 158 154" fill="none" xmlns="http://www.w3.org/2000/svg">
<path d="M82.2148 102.781V88.8019H86.1568C87.6264 88.8019 88.5836 88.87 89.0391 89.001C89.7567 89.2176 90.3495 89.679 90.8224 90.3854C91.2895 91.0917 91.5228 91.9975 91.5228 93.114C91.5228 94.1223 91.3155 94.9709 90.9183 95.6545C90.5132 96.3381 90.0071 96.8109 89.3974 97.0901C88.7935 97.3691 87.7517 97.5059 86.2648 97.5059H84.6581V102.781L82.2148 102.781ZM84.6581 91.1716V95.1304H86.0145C86.9256 95.1304 87.5412 95.0735 87.8715 94.9541C88.198 94.8346 88.4637 94.6123 88.6687 94.2991C88.8796 93.98 88.9826 93.5984 88.9826 93.137C88.9826 92.6756 88.8797 92.2824 88.6647 91.9691C88.4498 91.65 88.1808 91.4394 87.8674 91.3255C87.5491 91.2172 86.8762 91.1716 85.851 91.1716H84.6581ZM93.0487 95.8768C93.0487 94.2134 93.3057 92.8406 93.8298 91.764C94.354 90.6873 95.0316 89.8843 95.8745 89.3545C96.7178 88.8304 97.7378 88.5625 98.9395 88.5625C100.677 88.5625 102.096 89.1892 103.189 90.4424C104.283 91.6956 104.829 93.4787 104.829 95.7915C104.829 98.127 104.254 99.9553 103.092 101.271C102.073 102.439 100.694 103.02 98.9506 103.02C97.1904 103.02 95.8064 102.439 94.7866 101.294C93.6246 99.9783 93.0487 98.1724 93.0487 95.8768ZM95.5728 95.7801C95.5728 97.3922 95.8996 98.594 96.5416 99.4029C97.191 100.2 97.9878 100.605 98.9506 100.605C99.9133 100.605 100.711 100.206 101.343 99.4087C101.975 98.6112 102.295 97.3864 102.295 95.7345C102.295 94.111 101.989 92.9148 101.372 92.1343C100.757 91.3654 99.9472 90.9722 98.9506 90.9722C97.9535 90.9722 97.14 91.3653 96.5133 92.1457C95.8867 92.9318 95.5728 94.1452 95.5728 95.7801ZM108.458 102.781L105.559 88.8019H108.071L109.893 98.4005L112.115 88.8019H115.037L117.168 98.5655L119.042 88.8019H121.508L118.552 102.781H115.944L113.523 92.3281L111.119 102.781H108.458ZM122.768 102.781V88.8019H131.785V91.1716H125.211V94.2648H131.318V96.6175H125.211V100.423H132.007V102.781H122.768ZM134.086 102.781V88.8019H139.247C140.575 88.8019 141.515 88.9272 142.084 89.1781C142.648 89.4286 143.115 89.8673 143.474 90.4825C143.846 91.1092 144.021 91.8497 144.021 92.7098C144.021 93.8036 143.748 94.6864 143.189 95.353C142.631 96.0195 141.839 96.4411 140.82 96.612C141.343 96.9708 141.777 97.3524 142.119 97.7796C142.466 98.2011 142.933 98.9589 143.525 100.053L145.001 102.781H142.084L140.301 99.7393C139.663 98.6398 139.231 97.9506 138.997 97.6772C138.77 97.3982 138.524 97.2102 138.267 97.1019C138.015 96.9994 137.607 96.948 137.037 96.948H136.536V102.781L134.086 102.781ZM136.536 94.7091H138.353C139.464 94.7091 140.171 94.6679 140.473 94.5781C140.778 94.4814 141.025 94.299 141.212 94.0198C141.398 93.7408 141.498 93.3648 141.498 92.9034C141.498 92.459 141.402 92.1002 141.212 91.8268C141.026 91.5589 140.768 91.3711 140.443 91.2742C140.216 91.2003 139.55 91.1718 138.456 91.1718H136.536" fill="#007FC5"/>
<path d="M14 88.5898H28.7022V92.8792H24.4413V103.048H18.3174V92.8792H14" fill="#007FC5"/>
<path d="M36.1071 94.4685L33.0199 103.048H27.1523L32.8998 88.5898H39.2568L45.1869 103.048H39.2568" fill="#007FC5"/>
<path d="M43.7656 88.5898H58.4628V92.8792H54.2644V103.048H48.1527V92.8792H43.7656" fill="#007FC5"/>
<path d="M65.8776 94.4685L62.7894 103.048H56.9219L62.6643 88.5898H69.0274L74.9575 103.048H69.0274" fill="#007FC5"/>
<path d="M96.3752 59.6725C95.8225 58.6756 95.0818 57.6788 94.2216 56.8016C92.182 54.6882 89.3516 52.9905 85.9561 51.8171C82.5669 50.5866 78.7447 50 74.8023 50C70.8604 50 66.9752 50.5866 63.586 51.8171C60.2534 52.9905 57.423 54.6882 55.3892 56.8016C54.5232 57.6788 53.7889 58.6756 53.2305 59.6725C57.6056 58.6756 65.0615 57.3882 72.028 57.2116C72.7059 57.2116 73.2018 57.3882 73.447 57.7984C73.8149 58.2085 73.8153 59.7922 73.8153 60.5556L73.6286 78.9093C74.0007 78.9093 74.3695 78.9664 74.8023 78.9664C75.1744 78.9664 75.6061 78.9664 75.976 78.9093L75.7893 60.5556C75.7893 59.7922 75.7272 58.2085 76.0951 57.7984C76.4093 57.3884 76.899 57.2116 77.5141 57.2116C84.4807 57.3881 92.0001 58.6756 96.3752 59.6725Z" fill="#007FC5"/>
<path d="M97.2975 62.0769C90.889 60.7325 86.5714 60.4361 82.3844 60.2595C78.6818 60.026 78.6819 61.3134 78.9894 63.6603C79.0597 63.8368 79.0598 64.0134 79.1135 64.1902C80.3495 71.1683 81.888 77.1496 82.1331 78.1465C91.1335 76.2097 97.6043 70.815 97.6043 64.4806C97.6043 63.6603 97.4835 62.8402 97.2975 62.0769Z" fill="#007FC5"/>
<path d="M70.5463 63.6603C70.9183 61.3134 70.8609 60.026 67.2199 60.2595C62.9704 60.436 58.7153 60.7325 52.3068 62.0769C52.1208 62.8402 52 63.6603 52 64.4806C52 67.1807 53.1685 69.8752 55.3899 72.1652C57.4237 74.2159 60.2541 75.9192 63.5867 77.0927C64.8174 77.5598 66.1108 77.9128 67.4096 78.2033C67.6535 77.2064 69.2551 71.1113 70.4857 64.0135" fill="#007FC5"/>
</svg>
